<mxfile host="Electron" agent="Mozilla/5.0 (Windows NT 10.0; Win64; x64) AppleWebKit/537.36 (KHTML, like Gecko) draw.io/25.0.2 Chrome/128.0.6613.186 Electron/32.2.5 Safari/537.36" version="25.0.2">
  <diagram name="Страница — 1" id="USOiM89C7aJSnKjAyrbQ">
    <mxGraphModel dx="1434" dy="836" grid="1" gridSize="10" guides="1" tooltips="1" connect="1" arrows="1" fold="1" page="1" pageScale="1" pageWidth="827" pageHeight="1169" math="0" shadow="0">
      <root>
        <mxCell id="0" />
        <mxCell id="1" parent="0" />
        <mxCell id="JKdDEJCeM3tznbTdhOyE-2" style="rounded=0;orthogonalLoop=1;jettySize=auto;html=1;entryX=0.5;entryY=1;entryDx=0;entryDy=0;" edge="1" parent="1" target="JKdDEJCeM3tznbTdhOyE-1">
          <mxGeometry relative="1" as="geometry">
            <mxPoint x="320" y="270" as="sourcePoint" />
          </mxGeometry>
        </mxCell>
        <mxCell id="JKdDEJCeM3tznbTdhOyE-4" style="rounded=0;orthogonalLoop=1;jettySize=auto;html=1;" edge="1" parent="1" target="JKdDEJCeM3tznbTdhOyE-3">
          <mxGeometry relative="1" as="geometry">
            <mxPoint x="320" y="280" as="sourcePoint" />
          </mxGeometry>
        </mxCell>
        <mxCell id="jbtlnsxvBcS-bq31Xjlp-2" value="Игрок" style="shape=umlActor;verticalLabelPosition=bottom;verticalAlign=top;html=1;outlineConnect=0;" parent="1" vertex="1">
          <mxGeometry x="320" y="270" width="30" height="60" as="geometry" />
        </mxCell>
        <mxCell id="jbtlnsxvBcS-bq31Xjlp-20" style="rounded=0;orthogonalLoop=1;jettySize=auto;html=1;" parent="1" target="jbtlnsxvBcS-bq31Xjlp-10" edge="1">
          <mxGeometry relative="1" as="geometry">
            <mxPoint x="360" y="420" as="sourcePoint" />
          </mxGeometry>
        </mxCell>
        <mxCell id="jbtlnsxvBcS-bq31Xjlp-21" style="rounded=0;orthogonalLoop=1;jettySize=auto;html=1;" parent="1" target="jbtlnsxvBcS-bq31Xjlp-11" edge="1">
          <mxGeometry relative="1" as="geometry">
            <mxPoint x="360" y="410" as="sourcePoint" />
          </mxGeometry>
        </mxCell>
        <mxCell id="jbtlnsxvBcS-bq31Xjlp-22" style="rounded=0;orthogonalLoop=1;jettySize=auto;html=1;entryX=0.229;entryY=0.1;entryDx=0;entryDy=0;entryPerimeter=0;" parent="1" target="jbtlnsxvBcS-bq31Xjlp-12" edge="1">
          <mxGeometry relative="1" as="geometry">
            <mxPoint x="360" y="430" as="sourcePoint" />
          </mxGeometry>
        </mxCell>
        <mxCell id="jbtlnsxvBcS-bq31Xjlp-3" value="Администратор" style="shape=umlActor;verticalLabelPosition=bottom;verticalAlign=top;html=1;outlineConnect=0;" parent="1" vertex="1">
          <mxGeometry x="320" y="390" width="30" height="60" as="geometry" />
        </mxCell>
        <mxCell id="jbtlnsxvBcS-bq31Xjlp-6" value="&lt;p class=&quot;MsoNormal&quot;&gt;&lt;span style=&quot;mso-spacerun:&#39;yes&#39;;font-family:&#39;Times New Roman&#39;;mso-fareast-font-family:宋体;&lt;br/&gt;font-size:10,5000pt;mso-font-kerning:1,0000pt;&quot;&gt;Управление отрядом&amp;nbsp;&lt;/span&gt;&lt;/p&gt;" style="ellipse;whiteSpace=wrap;html=1;" parent="1" vertex="1">
          <mxGeometry x="490" y="100" width="120" height="80" as="geometry" />
        </mxCell>
        <mxCell id="jbtlnsxvBcS-bq31Xjlp-7" value="&lt;p class=&quot;MsoNormal&quot;&gt;&lt;span style=&quot;mso-spacerun:&#39;yes&#39;;font-family:&#39;Times New Roman&#39;;mso-fareast-font-family:宋体;&lt;br/&gt;font-size:10,5000pt;mso-font-kerning:1,0000pt;&quot;&gt;Стрельба&amp;nbsp;&lt;/span&gt;&lt;/p&gt;" style="ellipse;whiteSpace=wrap;html=1;" parent="1" vertex="1">
          <mxGeometry x="624" y="140" width="120" height="80" as="geometry" />
        </mxCell>
        <mxCell id="jbtlnsxvBcS-bq31Xjlp-8" value="&lt;p class=&quot;MsoNormal&quot;&gt;&lt;span style=&quot;mso-spacerun:&#39;yes&#39;;font-family:&#39;Times New Roman&#39;;mso-fareast-font-family:宋体;&lt;br/&gt;font-size:10,5000pt;mso-font-kerning:1,0000pt;&quot;&gt;Перемещение&lt;/span&gt;&lt;/p&gt;" style="ellipse;whiteSpace=wrap;html=1;" parent="1" vertex="1">
          <mxGeometry x="570" y="240" width="120" height="80" as="geometry" />
        </mxCell>
        <mxCell id="jbtlnsxvBcS-bq31Xjlp-9" value="&lt;p class=&quot;MsoNormal&quot;&gt;&lt;span style=&quot;mso-spacerun:&#39;yes&#39;;font-family:&#39;Times New Roman&#39;;mso-fareast-font-family:宋体;&lt;br/&gt;font-size:10,5000pt;mso-font-kerning:1,0000pt;&quot;&gt;Сетевое взаимодействие&amp;nbsp;&lt;/span&gt;&lt;/p&gt;" style="ellipse;whiteSpace=wrap;html=1;" parent="1" vertex="1">
          <mxGeometry x="340" y="90" width="120" height="80" as="geometry" />
        </mxCell>
        <mxCell id="jbtlnsxvBcS-bq31Xjlp-10" value="&lt;p class=&quot;MsoNormal&quot;&gt;&lt;span style=&quot;mso-spacerun:&#39;yes&#39;;font-family:&#39;Times New Roman&#39;;mso-fareast-font-family:宋体;&lt;br/&gt;font-size:10,5000pt;mso-font-kerning:1,0000pt;&quot;&gt;Настройка игры&amp;nbsp;&lt;/span&gt;&lt;/p&gt;" style="ellipse;whiteSpace=wrap;html=1;" parent="1" vertex="1">
          <mxGeometry x="504" y="420" width="120" height="80" as="geometry" />
        </mxCell>
        <mxCell id="jbtlnsxvBcS-bq31Xjlp-11" value="&lt;p class=&quot;MsoNormal&quot;&gt;&lt;span style=&quot;mso-spacerun:&#39;yes&#39;;font-family:&#39;Times New Roman&#39;;mso-fareast-font-family:宋体;&lt;br/&gt;font-size:10,5000pt;mso-font-kerning:1,0000pt;&quot;&gt;Просмотр статистики&lt;/span&gt;&lt;/p&gt;" style="ellipse;whiteSpace=wrap;html=1;" parent="1" vertex="1">
          <mxGeometry x="504" y="330" width="120" height="80" as="geometry" />
        </mxCell>
        <mxCell id="jbtlnsxvBcS-bq31Xjlp-12" value="&lt;p class=&quot;MsoNormal&quot;&gt;&lt;span style=&quot;mso-spacerun:&#39;yes&#39;;font-family:&#39;Times New Roman&#39;;mso-fareast-font-family:宋体;&lt;br/&gt;font-size:10,5000pt;mso-font-kerning:1,0000pt;&quot;&gt;Бан игроков&lt;/span&gt;&lt;/p&gt;" style="ellipse;whiteSpace=wrap;html=1;" parent="1" vertex="1">
          <mxGeometry x="390" y="480" width="120" height="80" as="geometry" />
        </mxCell>
        <mxCell id="jbtlnsxvBcS-bq31Xjlp-14" style="rounded=0;orthogonalLoop=1;jettySize=auto;html=1;exitX=0;exitY=1;exitDx=0;exitDy=0;entryX=1;entryY=0.3333333333333333;entryDx=0;entryDy=0;entryPerimeter=0;endArrow=none;endFill=0;startArrow=classic;startFill=1;" parent="1" source="jbtlnsxvBcS-bq31Xjlp-6" target="jbtlnsxvBcS-bq31Xjlp-2" edge="1">
          <mxGeometry relative="1" as="geometry" />
        </mxCell>
        <mxCell id="jbtlnsxvBcS-bq31Xjlp-15" style="rounded=0;orthogonalLoop=1;jettySize=auto;html=1;endArrow=none;endFill=0;startArrow=classic;startFill=1;" parent="1" source="jbtlnsxvBcS-bq31Xjlp-9" target="jbtlnsxvBcS-bq31Xjlp-2" edge="1">
          <mxGeometry relative="1" as="geometry" />
        </mxCell>
        <mxCell id="jbtlnsxvBcS-bq31Xjlp-16" style="rounded=0;orthogonalLoop=1;jettySize=auto;html=1;startArrow=classic;startFill=1;endArrow=none;endFill=0;" parent="1" source="jbtlnsxvBcS-bq31Xjlp-7" edge="1">
          <mxGeometry relative="1" as="geometry">
            <mxPoint x="528" y="188" as="sourcePoint" />
            <mxPoint x="360" y="300" as="targetPoint" />
          </mxGeometry>
        </mxCell>
        <mxCell id="jbtlnsxvBcS-bq31Xjlp-17" style="rounded=0;orthogonalLoop=1;jettySize=auto;html=1;exitX=0;exitY=0.5;exitDx=0;exitDy=0;startArrow=classic;startFill=1;endArrow=none;endFill=0;" parent="1" source="jbtlnsxvBcS-bq31Xjlp-8" edge="1">
          <mxGeometry relative="1" as="geometry">
            <mxPoint x="696" y="207" as="sourcePoint" />
            <mxPoint x="360" y="310" as="targetPoint" />
          </mxGeometry>
        </mxCell>
        <mxCell id="jbtlnsxvBcS-bq31Xjlp-18" style="rounded=0;orthogonalLoop=1;jettySize=auto;html=1;exitX=0.104;exitY=0.204;exitDx=0;exitDy=0;exitPerimeter=0;startArrow=classic;startFill=1;endArrow=none;endFill=0;" parent="1" source="jbtlnsxvBcS-bq31Xjlp-11" edge="1">
          <mxGeometry relative="1" as="geometry">
            <mxPoint x="570" y="280" as="sourcePoint" />
            <mxPoint x="360" y="320" as="targetPoint" />
          </mxGeometry>
        </mxCell>
        <mxCell id="JKdDEJCeM3tznbTdhOyE-1" value="&lt;p class=&quot;MsoNormal&quot;&gt;&lt;font face=&quot;Times New Roman&quot;&gt;Пользовательский интерфейс&lt;/font&gt;&lt;/p&gt;" style="ellipse;whiteSpace=wrap;html=1;" vertex="1" parent="1">
          <mxGeometry x="200" y="90" width="120" height="80" as="geometry" />
        </mxCell>
        <mxCell id="JKdDEJCeM3tznbTdhOyE-3" value="&lt;font face=&quot;Times New Roman&quot;&gt;Уровни&lt;/font&gt;" style="ellipse;whiteSpace=wrap;html=1;" vertex="1" parent="1">
          <mxGeometry x="80" y="160" width="120" height="80" as="geometry" />
        </mxCell>
      </root>
    </mxGraphModel>
  </diagram>
</mxfile>
